<?xml version="1.0" encoding="utf-8"?>
<!-- Generator: Adobe Illustrator 16.0.0, SVG Export Plug-In . SVG Version: 6.00 Build 0)  -->
<!DOCTYPE svg PUBLIC "-//W3C//DTD SVG 1.1//EN" "http://www.w3.org/Graphics/SVG/1.1/DTD/svg11.dtd">
<svg version="1.1" id="Layer_1" xmlns="http://www.w3.org/2000/svg" xmlns:xlink="http://www.w3.org/1999/xlink" x="0px" y="0px"
	 width="532.641px" height="532.641px" viewBox="0 0 532.641 532.641" enable-background="new 0 0 532.641 532.641"
	 xml:space="preserve">
<path fill="#FFFFFF" d="M266.32,0C119.235,0,0,119.235,0,266.32c0,147.084,119.235,266.32,266.32,266.32
	c147.084,0,266.32-119.236,266.32-266.32C532.641,119.235,413.404,0,266.32,0z M373.29,232.714
	c-16.882-10.097-35.023-15.619-53.801-19.09c-2.84-0.473-3.944-1.893-4.417-4.574c-3.313-17.986-8.993-35.185-19.091-51.276
	C329.745,163.61,369.03,201.791,373.29,232.714z M304.816,294.562c-0.475,5.206-2.684,6.626-7.102,6.782
	c-10.568,0.789-20.981,1.577-31.87,2.21c-10.412-0.632-21.142-1.421-31.869-2.053c-3.944-0.157-5.68-1.733-6.153-6.15
	c-2.051-21.457-1.578-42.916,0.631-64.373c0.315-3.944,1.894-5.364,5.681-5.838c21.457-2.209,42.914-2.209,64.371,0
	c3.155,0.315,5.051,1.263,5.521,5.049C306.236,251.647,306.552,273.104,304.816,294.562z M281.939,163.452
	c10.255,13.727,14.831,29.977,18.617,47.332c-22.878-2.209-45.281-2.523-68.632,0c3.787-17.514,8.362-33.447,18.303-47.016
	C260.482,149.568,271.369,149.41,281.939,163.452z M236.974,157.3c-10.254,16.092-15.62,32.658-19.09,49.855
	c-0.946,4.26-2.367,5.996-6.784,6.784c-18.144,3.471-35.657,8.678-51.592,18.616C165.03,200.687,200.371,165.503,236.974,157.3z
	 M164.083,246.914c11.202-8.204,34.237-16.565,49.856-17.827c-2.208,21.93-2.366,43.859-0.789,65.79
	c0.315,3.786-1.894,2.84-3.944,2.366c-15.935-3.471-31.555-8.046-44.965-17.67C149.253,268.845,149.41,257.8,164.083,246.914z
	 M156.51,292.194c16.25,10.413,33.29,16.564,51.276,19.563c6.311,1.104,8.362,4.262,9.309,9.939
	c3.155,18.459,8.835,36.13,18.933,52.223C207.155,374.867,163.61,330.533,156.51,292.194z M250.7,369.345
	c-10.886-14.673-15.462-31.868-19.09-49.541c-0.789-3.471,0.789-3.942,3.786-3.629c21.614,2.209,43.229,2.054,66.423-0.473
	c-3.787,19.879-8.362,38.023-19.88,53.643C271.842,382.914,260.956,382.914,250.7,369.345z M296.139,374.552
	c11.045-17.354,16.407-36.443,20.193-56.167c0.631-3.784,2.051-5.049,5.682-5.837c18.773-3.787,37.075-9.309,53.643-20.193
	C369.188,333.531,328.009,369.503,296.139,374.552z M367.926,280.046c-13.409,9.469-28.715,13.887-44.49,17.355
	c-3.944,0.946-4.262-0.476-4.104-3.944c0.315-8.993,0.157-17.828,0.157-26.821c0.631,0,1.104,0,1.42,0
	c-0.631-11.043-1.262-22.086-2.209-32.975c-0.315-3.471-0.631-5.521,4.104-4.417c15.935,3.628,31.555,8.046,45.121,17.67
	C383.229,257.642,383.229,269.317,367.926,280.046z"/>
</svg>
